<?xml version="1.0" encoding="utf-8"?>
<!-- Generator: Adobe Illustrator 14.0.0, SVG Export Plug-In . SVG Version: 6.00 Build 43363)  -->
<!DOCTYPE svg PUBLIC "-//W3C//DTD SVG 1.1//EN" "http://www.w3.org/Graphics/SVG/1.1/DTD/svg11.dtd">
<svg version="1.1" id="Layer_1" xmlns="http://www.w3.org/2000/svg" xmlns:xlink="http://www.w3.org/1999/xlink" x="0px" y="0px"
	 width="1024px" height="1024px" viewBox="0 0 1024 1024" enable-background="new 0 0 1024 1024" xml:space="preserve">
<g>
	<path fill="#2C4C96" d="M295.984,159.818c123.173,0,247.909,1.431,371.095,1.431c0,0,6.563,0.502,7.644,50.248
		c0.467,41.532-78.722,2.791-76.229,59.421c0.569,12.855,21.466,18.98,79.335,25.198c26.135,13.687-0.715,37.364,21.774,51.644
		c114.567,11.745,87.792,46.893,100.319,92.026c48.55,7.484,30.146-51.962,33.601-89.585c29.867,0,59.721,0,89.587,0
		c101.735,79.114,119.644,516.173-89.587,447.949c-3.486-33.848,12.44-87.092-22.4-89.587
		c-42.541,9.729-9.639,94.896-33.602,123.188c-124.879,43.213-295.304,44.364-405.527-4.871
		c-39.683-25.58-47.806-40.526-77.775-90.854c-98-1.547-116.51-13.725-143.837-38.662c-7.015-34.04,14.349-96.456-11.186-111.987
		c-69.898,1.034-17.268,124.587-33.602,179.175c-94.442,0.598-51.202-162.39-33.586-212.775
		c-38.297-50.125-92.242-238.211,37.713-233.106c12.673,50.81-21.466,155.405,18.273,165.919
		c48.93-10.807,2.975-116.479,44.787-134.388c161.879-4.93,91.409-66.997,190.389-78.396c23.188-60.521-61.046-13.612-67.187-44.792
		C281.925,201.535,292.513,185.996,295.984,159.818z M307.185,518.175c-20.623,248.565,295.246,238.661,335.949,78.401
		c37.698-148.388-55.93-253.156-212.776-212.773C342.39,406.449,311.91,461.211,307.185,518.175z"/>
	<polygon fill-rule="evenodd" clip-rule="evenodd" fill="#7391BD" points="415.248,528.835 452.584,566.171 555.573,463.187 
		596.641,504.247 458.488,642.399 381.939,565.863 	"/>
</g>
</svg>
